<?xml version="1.0" standalone="no"?><!DOCTYPE svg PUBLIC "-//W3C//DTD SVG 1.1//EN" "http://www.w3.org/Graphics/SVG/1.1/DTD/svg11.dtd"><svg t="1699374461729" class="icon" viewBox="0 0 1173 1024" version="1.1" xmlns="http://www.w3.org/2000/svg" p-id="6464" width="36.65625" height="32" xmlns:xlink="http://www.w3.org/1999/xlink"><path d="M1084.440976 257.673366l-661.653854 382.126829-3.996098 2.67239c-5.244878 2.697366-10.614634 3.996098-17.283122 3.996098a37.638244 37.638244 0 0 1-33.342439-20.030439l-2.697365-5.244878-105.147318-229.15122c-1.273756-2.67239-1.273756-5.244878-1.273756-7.942244 0-10.63961 7.942244-18.731707 18.731708-18.731707 3.971122 0 7.942244 1.298732 11.913366 3.996098l123.879024 87.964097c9.216 5.244878 19.980488 9.240976 31.918829 9.240976 6.668488 0 13.212098-1.298732 19.980488-3.996098L1046.103415 204.200585C942.229854 81.870049 770.522537 1.873171 576.037463 1.873171 259.146927 1.873171 0.774244 216.388683 0.774244 481.28c0 143.734634 77.174634 274.257171 198.356293 362.221268 9.240976 6.668488 15.909463 18.731707 15.909463 30.645073 0 3.996098-1.273756 7.942244-2.697366 11.913366-9.240976 35.914927-25.37522 94.657561-25.375219 97.205073a48.702439 48.702439 0 0 0-2.697366 14.610732c0 10.63961 7.942244 18.731707 18.731707 18.731708 3.971122 0 7.942244-1.298732 10.63961-3.996098l125.127805-73.178537c9.240976-5.269854 20.005463-9.240976 30.645073-9.240975 5.244878 0 11.938341 1.24878 17.308097 2.67239a667.048585 667.048585 0 0 0 187.866537 26.673951c316.690732-0.124878 575.063415-214.64039 575.063415-479.431805 0-79.996878-23.976585-155.772878-65.261269-222.457756z" fill="#1aad19" p-id="6465"></path></svg>