<?xml version="1.0" standalone="no"?><!DOCTYPE svg PUBLIC "-//W3C//DTD SVG 1.1//EN" "http://www.w3.org/Graphics/SVG/1.1/DTD/svg11.dtd"><svg t="1699369043314" class="icon" viewBox="0 0 1024 1024" version="1.1" xmlns="http://www.w3.org/2000/svg" p-id="13768" width="32" height="32" xmlns:xlink="http://www.w3.org/1999/xlink"><path d="M755.2 934.485333H269.226667c-66.922667 0-121.173333-58.453333-121.173334-130.517333V232.597333c0-72.085333 54.250667-130.517333 121.173334-130.517333H755.2c66.944 0 121.194667 58.432 121.194667 130.517333v571.370667c0 72.085333-54.250667 130.517333-121.173334 130.517333z" fill="#E5361B" p-id="13769"></path><path d="M876.394667 219.562667c-2.752-65.365333-55.893333-117.482667-121.088-117.482667H269.141333c-65.173333 0-118.336 52.16-121.088 117.482667 2.837333 201.386667 164.736 228.906667 364.16 228.906666 199.445333 0 361.344-27.52 364.181334-228.906666z" fill="#F84028" p-id="13770"></path><path d="M512.213333 570.304a130.218667 130.218667 0 0 1-130.048-130.069333 130.218667 130.218667 0 0 1 130.048-130.048 130.218667 130.218667 0 0 1 130.069334 130.048 130.218667 130.218667 0 0 1-130.069334 130.069333z" fill="#FAD41F" p-id="13771"></path><path d="M512.213333 310.186667a130.218667 130.218667 0 0 1 130.069334 130.048 130.218667 130.218667 0 0 1-130.069334 130.069333 130.218667 130.218667 0 0 1-130.048-130.069333 130.218667 130.218667 0 0 1 130.048-130.048z m0 9.749333c-66.325333 0-120.298667 53.973333-120.298666 120.32 0 66.304 53.973333 120.298667 120.32 120.298667 66.304 0 120.298667-53.973333 120.298666-120.32 0-66.325333-53.973333-120.298667-120.32-120.298667z" fill="#FFF049" p-id="13772"></path><path d="M521.429333 509.098667v-28.202667h31.786667v-8.981333h-31.786667v-17.621334h31.786667v-8.96h-26.752l36.629333-64.512h-17.770666l-31.786667 58.922667-31.808-58.922667h-17.792l36.650667 64.490667H474.026667v8.981333H505.6v17.621334h-31.616v8.96H505.6v28.224z" fill="#FFF049" p-id="13773"></path></svg>